<svg xmlns="http://www.w3.org/2000/svg" viewBox="5.94115 -0.1 101.8 113.9">
    <path
        d="M 107.6494 58.2859 V 57.12 c 0 -6.9479 -5.6526 -12.6 -12.6 -12.6 c -1.5691 0 -3.071 0.2906 -4.4582 0.817 C 89.4124 39.6043 84.3265 35.28 78.2494 35.28 c -1.6503 0 -3.2256 0.322 -4.671 0.9016 C 72.0535 30.8907 66.9894 26.88 61.1694 26.88 c -1.5669 0 -3.0778 0.303 -4.48 0.849 V 12.6 c 0 -6.9479 -5.6526 -12.6 -12.6 -12.6 s -12.6 5.6521 -12.6 12.6 v 37.105 c -2.2053 -2.8162 -4.8569 -5.2707 -7.9346 -6.5358 c -3.4345 -1.4112 -7.0487 -1.2426 -10.4535 0.4883 c -6.2619 3.1842 -8.8435 10.8578 -5.7551 17.1069 l 15.652 31.6753 c 0.4424 0.8691 11.0494 21.2845 30.2529 21.2845 h 22.4 c 17.6624 0 32.0314 -14.4446 32.0314 -32.2034 l -0.0174 -23.235 H 107.6494 z M 75.6515 105.3242 h -22.4 c -13.8331 0 -22.451 -16.0933 -22.7618 -16.6858 l -15.6128 -31.5952 c -1.0774 -2.1801 -0.1848 -4.7706 2.0322 -5.8979 c 1.2219 -0.6216 2.2854 -0.6849 3.4485 -0.2083 c 4.6374 1.9012 9.1896 11.0634 10.9682 16.3884 l 1.3496 4.065 l 7.2145 -2.553 V 12.6 c 0 -2.3162 1.8838 -4.2 4.2 -4.2 s 4.2 1.8838 4.2 4.2 V 61.04 h 0.0762 h 8.3238 h -0.1299 V 39.76 c 0 -2.3447 2.0989 -4.48 4.4038 -4.48 c 2.3867 0 4.48 1.9628 4.48 4.2 v 8.4 v 14.56 h 8.4 v -14.56 c 0 -2.3162 1.8838 -4.2 4.2 -4.2 s 4.2 1.8838 4.2 4.2 V 57.12 v 9.24 h 8.4 V 57.12 c 0 -2.3162 1.8838 -4.2 4.2 -4.2 s 4.2 1.8838 4.2 4.2 v 6.0071 h 0.0196 l 0.014 18.3971 C 99.283 94.6478 88.6816 105.3242 75.6515 105.3242 z"
        stroke="#A200EA" stroke-width="0.1" fill="#A200EA" />
</svg>